<?xml version="1.0" encoding="UTF-8" standalone="no"?>
<!-- Created with Inkscape (http://www.inkscape.org/) -->

<svg
   xmlns:dc="http://purl.org/dc/elements/1.1/"
   xmlns:cc="http://creativecommons.org/ns#"
   xmlns:rdf="http://www.w3.org/1999/02/22-rdf-syntax-ns#"
   xmlns:svg="http://www.w3.org/2000/svg"
   xmlns="http://www.w3.org/2000/svg"
   xmlns:sodipodi="http://sodipodi.sourceforge.net/DTD/sodipodi-0.dtd"
   xmlns:inkscape="http://www.inkscape.org/namespaces/inkscape"
   version="1.1"
   id="svg4906"
   xml:space="preserve"
   width="800"
   height="800"
   viewBox="0 0 800 800"
   sodipodi:docname="basketball-player-sillhouette-publicdomainvectors.org.svg"
   inkscape:version="0.92.4 (5da689c313, 2019-01-14)"><metadata
     id="metadata4912"><rdf:RDF><cc:Work
         rdf:about=""><dc:format>image/svg+xml</dc:format><dc:type
           rdf:resource="http://purl.org/dc/dcmitype/StillImage" /><dc:title></dc:title></cc:Work></rdf:RDF></metadata><defs
     id="defs4910"><clipPath
       clipPathUnits="userSpaceOnUse"
       id="clipPath4922"><path
         d="M 0,600 H 600 V 0 H 0 Z"
         id="path4920"
         inkscape:connector-curvature="0" /></clipPath></defs><sodipodi:namedview
     pagecolor="#ffffff"
     bordercolor="#666666"
     borderopacity="1"
     objecttolerance="10"
     gridtolerance="10"
     guidetolerance="10"
     inkscape:pageopacity="0"
     inkscape:pageshadow="2"
     inkscape:window-width="1920"
     inkscape:window-height="1018"
     id="namedview4908"
     showgrid="false"
     inkscape:zoom="1.0406087"
     inkscape:cx="444.88307"
     inkscape:cy="401.94262"
     inkscape:window-x="-8"
     inkscape:window-y="-8"
     inkscape:window-maximized="1"
     inkscape:current-layer="g4914" /><g
     id="g4914"
     inkscape:groupmode="layer"
     inkscape:label="basketball-player-sillhouette-publicdomainvectors.org"
     transform="matrix(1.3333333,0,0,-1.3333333,0,800)"><g
       id="g4916"><g
         id="g4918"
         clip-path="url(#clipPath4922)"><path
           d="m 327.555,520.813 c -0.148,-0.232 -0.277,-0.473 -0.385,-0.728 -1.885,-4.389 -7.24,-12.254 -12.144,-18.098 l 4.485,-8.064 z"
           style="fill:#ab8fa7;fill-opacity:1;fill-rule:nonzero;stroke:none"
           id="path4924"
           inkscape:connector-curvature="0" /><path
           d="m 389.911,543.906 c -3.992,0.728 -7.215,1.166 -7.215,1.166 h -0.008 c -7.931,-1.586 -10.304,1.979 -17.449,-6.742 -1.471,-1.801 -2.538,-3.398 -3.387,-4.8 l 33.356,-48.441 z"
           style="fill:#003ccc;fill-opacity:1;fill-rule:nonzero;stroke:none"
           id="path4926"
           inkscape:connector-curvature="0" /><path
           d="m 409.042,536.158 5.799,-9.602 c -1.221,3.346 -2.914,6.707 -5.799,9.602"
           style="fill:#0056c8;fill-opacity:1;fill-rule:nonzero;stroke:none"
           id="path4928"
           inkscape:connector-curvature="0" /><path
           d="m 417.682,482.813 c 0.648,0.028 4.67,0.381 4.67,4.752 0,4.761 -5.55,14.279 -5.55,14.279 0,0 3.17,8.718 0.789,15.862 -0.895,2.683 -1.622,5.76 -2.75,8.85 l -5.799,9.602 c -1.535,1.539 -3.408,2.948 -5.729,4.151 -2.786,1.446 -8.641,2.728 -13.402,3.597 l 5.297,-58.817 z"
           style="fill:#006ad4;fill-opacity:1;fill-rule:nonzero;stroke:none"
           id="path4930"
           inkscape:connector-curvature="0" /><path
           d="m 361.852,533.53 c -3.27,-5.394 -3.331,-7.893 -10.891,-7.893 -9.08,0 -20.327,0 -23.406,-4.824 l -8.044,-26.89 3.225,-0.376 c 7.394,7.253 18.096,15.102 19.498,18.609 1.593,3.966 3.178,9.515 6.347,7.136 3.177,-2.375 -3.967,-9.519 -3.967,-15.068 0,-4.436 0.003,-9.884 2.434,-13.514 l 48.16,-5.621 z"
           style="fill:#5898c4;fill-opacity:1;fill-rule:nonzero;stroke:none"
           id="path4932"
           inkscape:connector-curvature="0" /><path
           d="m 315.026,501.987 c -1.296,-1.545 -2.56,-2.95 -3.72,-4.109 -3.249,-3.249 -6.498,-5.683 -9.746,-8.574 l 17.951,4.619 z"
           style="fill:#b28e76;fill-opacity:1;fill-rule:nonzero;stroke:none"
           id="path4934"
           inkscape:connector-curvature="0" /><path
           d="m 320.722,491.492 c 0.633,0.677 1.309,1.363 2.014,2.055 l -3.225,0.376 z"
           style="fill:#6dc9cd;fill-opacity:1;fill-rule:nonzero;stroke:none"
           id="path4936"
           inkscape:connector-curvature="0" /><path
           d="m 395.208,485.089 -48.16,5.621 c 0.61,-0.913 1.373,-1.712 2.33,-2.35 4.755,-3.17 15.066,-8.727 -0.797,-8.727 -8.435,0 -15.523,-0.223 -21.386,-1.148 l 14.403,-28.936 z"
           style="fill:#6dc9cd;fill-opacity:1;fill-rule:nonzero;stroke:none"
           id="path4938"
           inkscape:connector-curvature="0" /><path
           d="m 234.736,445.267 c -6.486,5.045 -10.384,6.544 -14.059,6.97 l 4.665,-17.746 z"
           style="fill:#c32500;fill-opacity:1;fill-rule:nonzero;stroke:none"
           id="path4940"
           inkscape:connector-curvature="0" /><path
           d="m 220.677,452.237 c -2.973,0.344 -5.8,-0.012 -9.733,0.238 -6.925,0.44 -13.452,-1.996 -17.69,-4.101 l 32.088,-13.883 z"
           style="fill:#c10600;fill-opacity:1;fill-rule:nonzero;stroke:none"
           id="path4942"
           inkscape:connector-curvature="0" /><path
           d="m 447.315,430.517 c -0.073,0.259 -0.146,0.52 -0.22,0.779 l -0.887,-0.62 z"
           style="fill:#0074ce;fill-opacity:1;fill-rule:nonzero;stroke:none"
           id="path4944"
           inkscape:connector-curvature="0" /><path
           d="m 447.095,431.296 c -0.385,1.338 -0.786,2.661 -1.201,3.946 l 0.314,-4.566 z"
           style="fill:#007fd1;fill-opacity:1;fill-rule:nonzero;stroke:none"
           id="path4946"
           inkscape:connector-curvature="0" /><path
           d="m 301.56,489.304 c -2.303,-2.049 -4.606,-4.327 -6.907,-7.29 -2.935,-3.769 -6.753,-7.096 -9.935,-9.98 l 8.425,-3.331 c 3.362,7.079 19.805,14.171 26.889,22.039 0.224,0.249 0.454,0.499 0.69,0.75 l -1.211,2.431 z"
           style="fill:#abc38b;fill-opacity:1;fill-rule:nonzero;stroke:none"
           id="path4948"
           inkscape:connector-curvature="0" /><path
           d="m 327.195,478.485 c -5.161,-0.815 -9.372,-2.172 -12.714,-4.403 -5.152,-3.431 -10.302,-3.977 -15.751,-7.587 l 42.868,-16.946 z"
           style="fill:#abc38b;fill-opacity:1;fill-rule:nonzero;stroke:none"
           id="path4950"
           inkscape:connector-curvature="0" /><path
           d="m 193.254,448.374 c -3.027,-1.505 -4.886,-2.84 -4.886,-2.84 0,0 -8.402,-5.953 -9.274,-12.369 -0.169,-1.24 -0.34,-2.311 -0.511,-3.233 l 46.759,4.559 z"
           style="fill:#c60800;fill-opacity:1;fill-rule:nonzero;stroke:none"
           id="path4952"
           inkscape:connector-curvature="0" /><path
           d="m 278.791,465.361 c -1.594,-3.964 2.373,-10.312 2.373,-10.312 0,0 8.727,6.348 11.898,13.484 0.025,0.056 0.053,0.113 0.081,0.17 l -8.425,3.331 c -2.843,-2.577 -5.18,-4.802 -5.927,-6.673"
           style="fill:#c8c46c;fill-opacity:1;fill-rule:nonzero;stroke:none"
           id="path4954"
           inkscape:connector-curvature="0" /><path
           d="m 341.598,449.549 -42.868,16.946 c -2.102,-1.394 -4.249,-3.245 -6.458,-5.894 -7.931,-9.516 -14.277,-18.245 -19.828,-26.176 -1.646,-2.354 -4.978,-5.006 -8.848,-7.571 l -0.305,-12.442 z"
           style="fill:#c8c46c;fill-opacity:1;fill-rule:nonzero;stroke:none"
           id="path4956"
           inkscape:connector-curvature="0" /><path
           d="m 446.208,430.676 -0.314,4.566 c -1.934,5.994 -4.146,11.188 -6.093,13.461 -2.085,2.432 -8.425,7.913 -14.914,12.764 l -26.266,-27.578 z"
           style="fill:#0097de;fill-opacity:1;fill-rule:nonzero;stroke:none"
           id="path4958"
           inkscape:connector-curvature="0" /><path
           d="m 405.947,468.35 c -0.102,-0.02 -0.171,-0.026 -0.198,-0.011 0.066,0.002 0.133,0.007 0.198,0.011 m -7.326,-34.461 26.266,27.578 c -5.18,3.871 -10.454,7.339 -13.741,8.534 2.295,1.385 4.041,3.53 4.065,6.06 l 2.38,6.75 c 0,0 0.034,0 0.091,0.002 l -22.474,2.276 z"
           style="fill:#008dde;fill-opacity:1;fill-rule:nonzero;stroke:none"
           id="path4960"
           inkscape:connector-curvature="0" /><path
           d="m 395.208,485.089 -53.61,-35.54 57.023,-15.66 z"
           style="fill:#169ee2;fill-opacity:1;fill-rule:nonzero;stroke:none"
           id="path4962"
           inkscape:connector-curvature="0" /><path
           d="m 243.325,424.975 c -0.03,6.531 -1.639,14.873 -8.505,20.226 -0.028,0.023 -0.056,0.044 -0.084,0.066 l -9.394,-10.776 z"
           style="fill:#ce620a;fill-opacity:1;fill-rule:nonzero;stroke:none"
           id="path4964"
           inkscape:connector-curvature="0" /><path
           d="m 263.596,426.854 c -3.605,-2.388 -7.677,-4.702 -11.291,-6.629 l 10.986,-5.813 z"
           style="fill:#ce620a;fill-opacity:1;fill-rule:nonzero;stroke:none"
           id="path4966"
           inkscape:connector-curvature="0" /><path
           d="m 323.438,390.911 c 0.546,-4.66 0.672,-9.187 -0.229,-12.803 -0.936,-3.737 -1.995,-7.719 -3.464,-11.801 l 34.502,12.566 z"
           style="fill:#dae262;fill-opacity:1;fill-rule:nonzero;stroke:none"
           id="path4968"
           inkscape:connector-curvature="0" /><path
           d="m 269.188,402.151 c 2.896,2.148 5.814,4.357 8.686,6.563 l -14.583,5.698 z"
           style="fill:#dae262;fill-opacity:1;fill-rule:nonzero;stroke:none"
           id="path4970"
           inkscape:connector-curvature="0" /><path
           d="m 448.451,426.19 c -0.351,1.439 -0.733,2.889 -1.136,4.327 l -1.107,0.159 z"
           style="fill:#008ad9;fill-opacity:1;fill-rule:nonzero;stroke:none"
           id="path4972"
           inkscape:connector-curvature="0" /><path
           d="m 341.598,449.549 12.649,-70.676 44.374,55.016 z"
           style="fill:#74e0e0;fill-opacity:1;fill-rule:nonzero;stroke:none"
           id="path4974"
           inkscape:connector-curvature="0" /><path
           d="m 341.598,449.549 -78.307,-35.137 14.583,-5.698 c 16.297,12.522 31.057,24.916 31.057,24.916 0,0 10.312,-14.273 11.101,-22.202 0.493,-4.922 2.512,-12.897 3.406,-20.517 l 30.809,-12.038 z"
           style="fill:#afdf7b;fill-opacity:1;fill-rule:nonzero;stroke:none"
           id="path4976"
           inkscape:connector-curvature="0" /><path
           d="m 176.802,395.469 c 5.533,-5.702 9.852,-9.531 14.446,-11.927 l -16.779,15.652 c 0.636,-1.519 1.412,-2.78 2.333,-3.725"
           style="fill:#df2200;fill-opacity:1;fill-rule:nonzero;stroke:none"
           id="path4978"
           inkscape:connector-curvature="0" /><path
           d="m 398.621,433.889 56.007,-37.01 c -2.128,5.429 -3.728,10.568 -3.728,13.752 0,3.733 -0.976,9.542 -2.449,15.559 l -2.243,4.486 z"
           style="fill:#009be2;fill-opacity:1;fill-rule:nonzero;stroke:none"
           id="path4980"
           inkscape:connector-curvature="0" /><path
           d="m 380.752,346.145 33.669,16.483 c 0.053,11.185 2.408,31.39 4.756,35.31 1.633,2.72 10.349,-14.329 15.667,-25.312 l 25.013,12.245 c -1.739,3.697 -3.632,7.933 -5.229,12.008 l -56.007,37.01 z"
           style="fill:#14b4ec;fill-opacity:1;fill-rule:nonzero;stroke:none"
           id="path4982"
           inkscape:connector-curvature="0" /><path
           d="m 178.583,429.932 c -2.956,-15.852 -6.25,12.507 -6.348,-15.938 -0.02,-5.998 0.705,-11.152 2.234,-14.8 l 16.779,-15.652 c 3.165,-1.65 6.461,-2.621 10.375,-3.053 9.128,-1.007 19.133,1.013 25.752,2.819 l -2.033,51.183 z"
           style="fill:#dc2b00;fill-opacity:1;fill-rule:nonzero;stroke:none"
           id="path4984"
           inkscape:connector-curvature="0" /><path
           d="m 252.305,420.225 c -5.576,-2.975 -10.063,-5.034 -10.063,-5.034 0,0 1.11,4.241 1.083,9.784 l -17.983,9.516 2.033,-51.183 c 4.521,1.233 7.461,2.366 7.461,2.366 0,0 8.304,2.139 16.199,5.368 l 12.256,23.37 z"
           style="fill:#df5e00;fill-opacity:1;fill-rule:nonzero;stroke:none"
           id="path4986"
           inkscape:connector-curvature="0" /><path
           d="m 398.621,433.889 -44.374,-55.016 26.505,-32.728 z"
           style="fill:#67d7ef;fill-opacity:1;fill-rule:nonzero;stroke:none"
           id="path4988"
           inkscape:connector-curvature="0" /><path
           d="m 251.035,391.042 c 3.628,1.483 7.17,3.197 9.781,5.04 2.722,1.92 5.536,3.965 8.372,6.069 l -5.897,12.261 z"
           style="fill:#e88200;fill-opacity:1;fill-rule:nonzero;stroke:none"
           id="path4990"
           inkscape:connector-curvature="0" /><path
           d="m 354.247,378.873 -34.502,-12.566 c -2.269,-6.313 -5.518,-12.865 -10.814,-19.127 -0.469,-0.554 -0.967,-1.15 -1.487,-1.777 l 29.938,-19.739 z"
           style="fill:#dcf07c;fill-opacity:1;fill-rule:nonzero;stroke:none"
           id="path4992"
           inkscape:connector-curvature="0" /><path
           d="m 421.999,316.283 c -1.461,5.993 -3.03,10.998 -4.408,12.653 -3.966,4.754 -3.171,22.202 -3.171,33.311 0,0.125 10e-4,0.253 10e-4,0.381 l -33.669,-16.483 z"
           style="fill:#31bded;fill-opacity:1;fill-rule:nonzero;stroke:none"
           id="path4994"
           inkscape:connector-curvature="0" /><path
           d="m 439.005,363.831 19.046,-32.225 6.959,42.858 c -0.599,1.144 -2.726,5.25 -5.153,10.407 l -25.013,-12.245 c 2.437,-5.034 4.161,-8.795 4.161,-8.795"
           style="fill:#31bded;fill-opacity:1;fill-rule:nonzero;stroke:none"
           id="path4996"
           inkscape:connector-curvature="0" /><path
           d="m 459.629,328.936 c 0,0 9.786,-14.196 13.877,-18.639 3.702,-4.02 9.039,-7.474 13.906,-10.545 l 12.202,1.797 c -1.815,3.575 -3.497,5.973 -3.497,5.973 2.036,-1.867 4.068,-3.738 6.122,-5.586 l 6.379,0.939 c -5.333,7.099 -12.703,15.153 -12.703,15.153 -9.916,9.516 18.043,-16.851 18.043,-12.888 0,6.742 -20.224,25.38 -20.224,25.38 l -15.072,3.965 -13.483,39.658 c 0,0 -0.06,0.112 -0.169,0.321 l -6.959,-42.858 z"
           style="fill:#0181dd;fill-opacity:1;fill-rule:nonzero;stroke:none"
           id="path4998"
           inkscape:connector-curvature="0" /><path
           d="m 420.307,288.116 6.665,1.35 c -0.538,4.903 -2.616,17.146 -4.973,26.817 l -41.247,29.862 z"
           style="fill:#8bebdb;fill-opacity:1;fill-rule:nonzero;stroke:none"
           id="path5000"
           inkscape:connector-curvature="0" /><path
           d="m 354.247,378.873 -16.865,-53.209 43.37,20.481 z"
           style="fill:#b7f3bb;fill-opacity:1;fill-rule:nonzero;stroke:none"
           id="path5002"
           inkscape:connector-curvature="0" /><path
           d="m 307.444,345.403 c -4.74,-5.717 -11.434,-14.27 -17.102,-22.026 l 47.04,2.287 z"
           style="fill:#f2da4a;fill-opacity:1;fill-rule:nonzero;stroke:none"
           id="path5004"
           inkscape:connector-curvature="0" /><path
           d="m 337.382,325.664 15.185,-46.309 c 3.875,-0.063 7.038,-0.801 7.919,-1.974 0.23,-0.306 0.445,-0.702 0.65,-1.172 l 19.616,69.936 z"
           style="fill:#d8f890;fill-opacity:1;fill-rule:nonzero;stroke:none"
           id="path5006"
           inkscape:connector-curvature="0" /><path
           d="m 380.752,346.145 -19.616,-69.936 c 0.939,-2.162 1.656,-5.925 2.565,-10.045 l 56.606,21.952 z"
           style="fill:#c5f5c1;fill-opacity:1;fill-rule:nonzero;stroke:none"
           id="path5008"
           inkscape:connector-curvature="0" /><path
           d="m 497.701,292.448 c 4.181,-4.36 6.346,-9.515 6.346,-6.346 0,5.458 -2.307,11.26 -4.433,15.447 l -12.202,-1.797 c 4.26,-2.688 8.159,-5.082 10.289,-7.304"
           style="fill:#6cb0c4;fill-opacity:1;fill-rule:nonzero;stroke:none"
           id="path5010"
           inkscape:connector-curvature="0" /><path
           d="m 513.564,292.448 c 1.556,0.901 -1.19,5.427 -4.946,10.427 l -6.379,-0.939 c 3.652,-3.285 7.375,-6.498 11.325,-9.488"
           style="fill:#6cb0c4;fill-opacity:1;fill-rule:nonzero;stroke:none"
           id="path5012"
           inkscape:connector-curvature="0" /><path
           d="m 313.197,253.501 c 9.653,7.53 18.834,15.322 21.114,19.119 1.184,1.973 3.252,3.455 5.728,4.52 l -53.726,40.604 c -3.377,-4.848 -5.933,-8.902 -6.727,-11.018 -0.462,-1.23 -1.971,-3.597 -4.128,-6.691 l -10.36,-57.698 z"
           style="fill:#ffd100;fill-opacity:1;fill-rule:nonzero;stroke:none"
           id="path5014"
           inkscape:connector-curvature="0" /><path
           d="m 352.567,279.355 -15.185,46.309 -47.04,-2.287 c -1.424,-1.947 -2.781,-3.844 -4.029,-5.633 l 53.726,-40.604 c 3.791,1.631 8.537,2.281 12.528,2.215"
           style="fill:#f9ed2d;fill-opacity:1;fill-rule:nonzero;stroke:none"
           id="path5016"
           inkscape:connector-curvature="0" /><path
           d="m 275.458,300.035 c -5.08,-7.283 -13.767,-18.607 -20.925,-28.685 l 10.565,-29.013 z"
           style="fill:#fd9d00;fill-opacity:1;fill-rule:nonzero;stroke:none"
           id="path5018"
           inkscape:connector-curvature="0" /><path
           d="m 254.533,271.35 c -5.472,-7.704 -10.051,-14.68 -11.435,-18.56 -0.839,-2.348 -1.713,-5.017 -2.63,-7.84 l 24.63,-2.613 z"
           style="fill:#ff9300;fill-opacity:1;fill-rule:nonzero;stroke:none"
           id="path5020"
           inkscape:connector-curvature="0" /><path
           d="m 420.307,288.116 -56.606,-21.952 c 0.223,-1.006 0.456,-2.033 0.708,-3.064 l 51.481,-5.503 z"
           style="fill:#cbf387;fill-opacity:1;fill-rule:nonzero;stroke:none"
           id="path5022"
           inkscape:connector-curvature="0" /><path
           d="m 415.89,257.597 15.085,15.421 c -2.249,7.7 -3.867,13.462 -3.867,14.67 0,0.365 -0.047,0.973 -0.136,1.778 l -6.665,-1.35 z"
           style="fill:#96eaa2;fill-opacity:1;fill-rule:nonzero;stroke:none"
           id="path5024"
           inkscape:connector-curvature="0" /><path
           d="m 437,252.44 c -2.08,7.21 -4.25,14.498 -6.025,20.578 L 415.89,257.597 Z"
           style="fill:#9ae292;fill-opacity:1;fill-rule:nonzero;stroke:none"
           id="path5026"
           inkscape:connector-curvature="0" /><path
           d="m 283.325,230.833 c 2.164,2.225 3.912,3.841 4.982,4.51 3.308,2.068 14.378,9.957 24.89,18.158 l -48.099,-11.164 z"
           style="fill:#ffce00;fill-opacity:1;fill-rule:nonzero;stroke:none"
           id="path5028"
           inkscape:connector-curvature="0" /><path
           d="m 152.684,81.476 c 0,-0.276 -0.014,-0.554 -0.039,-0.833 l 2.127,6.093 c -1.326,-1.724 -2.088,-3.45 -2.088,-5.26"
           style="fill:#df2c00;fill-opacity:1;fill-rule:nonzero;stroke:none"
           id="path5030"
           inkscape:connector-curvature="0" /><path
           d="m 415.89,257.597 -34.202,-27.272 c 0.861,-0.857 1.726,-1.576 2.591,-2.117 6.347,-3.966 16.654,-19.83 19.034,-25.379 2.38,-5.558 9.517,-19.83 9.517,-19.83 0,0 -0.819,-2.459 -1.714,-5.812 l 1.962,-0.507 z"
           style="fill:#f0d03c;fill-opacity:1;fill-rule:nonzero;stroke:none"
           id="path5032"
           inkscape:connector-curvature="0" /><path
           d="m 364.409,263.1 c 0.817,-3.345 1.818,-6.724 3.213,-9.513 3.425,-6.85 8.625,-17.837 14.066,-23.262 l 34.202,27.272 z"
           style="fill:#f6e63a;fill-opacity:1;fill-rule:nonzero;stroke:none"
           id="path5034"
           inkscape:connector-curvature="0" /><path
           d="m 220.896,206.418 c -2.625,-3.514 -5.355,-7.452 -7.761,-11.622 l 10.199,-8.479 z"
           style="fill:#fb6800;fill-opacity:1;fill-rule:nonzero;stroke:none"
           id="path5036"
           inkscape:connector-curvature="0" /><path
           d="m 413.078,176.68 31.196,47.267 c -0.928,5.921 -3.989,17.109 -7.274,28.493 l -21.11,5.157 z"
           style="fill:#c7df6f;fill-opacity:1;fill-rule:nonzero;stroke:none"
           id="path5038"
           inkscape:connector-curvature="0" /><path
           d="m 271.394,217.571 c 4.337,5.037 8.623,9.861 11.931,13.262 l -18.227,11.504 z"
           style="fill:#feb200;fill-opacity:1;fill-rule:nonzero;stroke:none"
           id="path5040"
           inkscape:connector-curvature="0" /><path
           d="m 213.135,194.796 c -1.894,-3.283 -3.585,-6.711 -4.864,-10.189 l 15.063,1.71 z"
           style="fill:#f35c00;fill-opacity:1;fill-rule:nonzero;stroke:none"
           id="path5042"
           inkscape:connector-curvature="0" /><path
           d="m 451.548,163.26 c 0.54,4.412 0.681,7.827 0.148,9.421 -2.38,7.141 -7.134,38.869 -7.134,48.384 0,0.722 -0.101,1.698 -0.288,2.882 L 413.078,176.68 Z"
           style="fill:#d3bf53;fill-opacity:1;fill-rule:nonzero;stroke:none"
           id="path5044"
           inkscape:connector-curvature="0" /><path
           d="m 265.098,242.337 -24.63,2.613 c -3.419,-10.518 -7.432,-23.182 -12.435,-29.435 -1.982,-2.477 -4.507,-5.575 -7.137,-9.097 l 2.438,-20.101 z"
           style="fill:#ff8500;fill-opacity:1;fill-rule:nonzero;stroke:none"
           id="path5046"
           inkscape:connector-curvature="0" /><path
           d="m 223.334,186.317 22.493,-9.885 c 0.153,0.343 0.301,0.68 0.442,1.009 4.76,11.109 5.557,16.659 5.557,16.659 0,0 9.914,12.264 19.568,23.471 l -6.296,24.766 z"
           style="fill:#fe9400;fill-opacity:1;fill-rule:nonzero;stroke:none"
           id="path5048"
           inkscape:connector-curvature="0" /><path
           d="m 208.271,184.607 c -0.68,-1.848 -1.245,-3.711 -1.659,-5.574 -1.602,-7.213 -5.026,-17.461 -8.023,-25.839 l 24.745,33.123 z"
           style="fill:#f04f00;fill-opacity:1;fill-rule:nonzero;stroke:none"
           id="path5050"
           inkscape:connector-curvature="0" /><path
           d="m 221.686,136.995 c 0.497,0.597 1.01,1.234 1.535,1.906 l 0.113,47.416 -24.745,-33.123 c -2.934,-8.204 -5.459,-14.613 -5.459,-14.613 l -14.278,-24.59 c 0,0 -1.097,-6.582 -6.482,-12.448 l 36.906,0.469 c 2.301,10.486 5.608,26.814 12.41,34.983"
           style="fill:#f64e00;fill-opacity:1;fill-rule:nonzero;stroke:none"
           id="path5052"
           inkscape:connector-curvature="0" /><path
           d="m 411.116,177.187 c -0.198,-0.746 -0.4,-1.537 -0.599,-2.355 l 2.561,1.848 z"
           style="fill:#fb9b00;fill-opacity:1;fill-rule:nonzero;stroke:none"
           id="path5054"
           inkscape:connector-curvature="0" /><path
           d="m 223.221,138.901 c 7.61,9.744 17.915,26.999 22.606,37.531 l -22.493,9.885 z"
           style="fill:#fd7700;fill-opacity:1;fill-rule:nonzero;stroke:none"
           id="path5056"
           inkscape:connector-curvature="0" /><path
           d="m 410.517,174.832 c -0.87,-3.59 -1.653,-7.699 -1.653,-10.872 0,-5.329 0.888,-11.548 2.658,-17.657 l 1.556,30.377 z"
           style="fill:#f56500;fill-opacity:1;fill-rule:nonzero;stroke:none"
           id="path5058"
           inkscape:connector-curvature="0" /><path
           d="m 411.522,146.303 c 0.6,-2.072 1.3,-4.129 2.103,-6.136 3.17,-7.933 5.552,-23.796 3.966,-30.931 -0.229,-1.029 -0.605,-2.405 -1.078,-4.018 l 33.369,47.366 c 0.692,3.869 1.28,7.525 1.666,10.676 l -38.47,13.42 z"
           style="fill:#e07000;fill-opacity:1;fill-rule:nonzero;stroke:none"
           id="path5060"
           inkscape:connector-curvature="0" /><path
           d="m 413.258,94.563 31.434,1.478 c -0.86,7.596 -1.721,15.721 -1.721,19.535 0,3.917 4.231,22.034 6.911,37.008 l -33.369,-47.366 c -0.868,-2.966 -2.061,-6.738 -3.255,-10.655"
           style="fill:#d54200;fill-opacity:1;fill-rule:nonzero;stroke:none"
           id="path5062"
           inkscape:connector-curvature="0" /><path
           d="m 207.613,74.449 3.055,5.46 c -1.413,4.147 -4.302,10.075 -2.465,17.429 0.338,1.354 0.692,2.933 1.073,4.674 l -36.906,-0.469 c -1.09,-1.189 -2.355,-2.347 -3.825,-3.416 -0.733,-0.532 -1.454,-1.054 -2.162,-1.565 l 31.841,-23.629 c 2.993,0.729 6.68,0.983 9.389,1.516"
           style="fill:#f03600;fill-opacity:1;fill-rule:nonzero;stroke:none"
           id="path5064"
           inkscape:connector-curvature="0" /><path
           d="m 408.864,73.545 c 1.121,-3.358 4.997,-7.106 8.578,-10.138 l -6.471,23.341 c -1.647,-5.979 -2.765,-11.231 -2.107,-13.203"
           style="fill:#f23700;fill-opacity:1;fill-rule:nonzero;stroke:none"
           id="path5066"
           inkscape:connector-curvature="0" /><path
           d="m 410.971,86.748 6.471,-23.341 c 1.498,-1.27 2.946,-2.415 4.116,-3.352 1.758,-1.406 1.488,-2.813 0.851,-4.358 l 25.449,20.999 c -0.912,2.518 -1.547,4.728 -1.711,6.364 -0.317,3.159 -0.885,7.954 -1.455,12.981 l -31.434,-1.478 c -0.794,-2.607 -1.588,-5.276 -2.287,-7.815"
           style="fill:#db2f00;fill-opacity:1;fill-rule:nonzero;stroke:none"
           id="path5068"
           inkscape:connector-curvature="0" /><path
           d="m 155.854,68.781 c 8.726,-0.789 35.691,-4.76 37.276,0.797 0.506,1.773 2.549,2.735 5.094,3.355 l -31.841,23.629 c -4.966,-3.593 -9.214,-6.707 -11.611,-9.826 l -2.127,-6.093 c -0.478,-5.336 -5.086,-11.104 3.209,-11.862"
           style="fill:#e42300;fill-opacity:1;fill-rule:nonzero;stroke:none"
           id="path5070"
           inkscape:connector-curvature="0" /><path
           d="m 211.374,76.714 c 0,0.903 -0.289,1.973 -0.706,3.195 l -3.055,-5.46 c 2.205,0.434 3.761,1.053 3.761,2.265"
           style="fill:#f64d00;fill-opacity:1;fill-rule:nonzero;stroke:none"
           id="path5072"
           inkscape:connector-curvature="0" /><path
           d="m 421.486,53.54 37.781,-7.025 c 0.359,0.814 0.496,1.638 0.362,2.439 -0.633,3.778 -8.257,18.05 -11.771,27.742 L 422.409,55.697 c -0.283,-0.687 -0.639,-1.402 -0.923,-2.157"
           style="fill:#ca1500;fill-opacity:1;fill-rule:nonzero;stroke:none"
           id="path5074"
           inkscape:connector-curvature="0" /><path
           d="m 421.083,52.095 4.121,-7.18 c 4.374,-3.392 11.483,-6.273 17.767,-6.273 7.258,0 14.518,3.84 16.296,7.873 l -37.781,7.025 c -0.173,-0.465 -0.319,-0.945 -0.403,-1.445"
           style="fill:#c80b00;fill-opacity:1;fill-rule:nonzero;stroke:none"
           id="path5076"
           inkscape:connector-curvature="0" /><path
           d="m 421.558,48.954 c 0.664,-1.331 1.95,-2.724 3.646,-4.039 l -4.121,7.18 c -0.164,-0.972 -0.091,-2.012 0.475,-3.141"
           style="fill:#cf1300;fill-opacity:1;fill-rule:nonzero;stroke:none"
           id="path5078"
           inkscape:connector-curvature="0" /></g></g></g></svg>